<svg xmlns="http://www.w3.org/2000/svg" viewBox="0 0 249.98 66.68"><path fill-rule="evenodd" d="M77.74 14.82h4.68v28.53h-4.68V14.82Zm27.25 19.02c0 5.83-3.91 9.97-9.85 9.97s-9.85-4.14-9.85-9.97 3.91-9.97 9.85-9.97 9.85 4.14 9.85 9.97Zm-4.72 0c0-3.41-2.03-5.79-5.14-5.79s-5.14 2.38-5.14 5.79c0 3.38 2.03 5.79 5.14 5.79s5.14-2.42 5.14-5.79Zm21.93-9.43h4.14v17.98c0 6.25-3.91 10.28-10.05 10.28-5.21 0-9.01-3.22-9.62-8.17h4.72c.27 2.49 2.26 3.91 5.18 3.91.24.02.49.02.73 0a4.84 4.84 0 0 0 4.48-5.18v-3.22a7.387 7.387 0 0 1-6.33 2.95c-5.33 0-8.9-3.99-8.9-9.51s3.64-9.66 9.05-9.66a7.083 7.083 0 0 1 6.33 3.18l.27-2.57Zm-.57 8.5c-.1-2.87-2.5-5.11-5.37-5.01-2.95 0-4.95 2.3-4.95 5.45s2.03 5.56 4.95 5.56h.4c2.9-.16 5.13-2.65 4.96-5.55v-.43Zm26.74.93c0 5.83-3.91 9.97-9.85 9.97s-9.85-4.14-9.85-9.97 3.91-9.97 9.85-9.97 9.85 4.14 9.85 9.97Zm-4.72 0c0-3.41-2.03-5.79-5.14-5.79s-5.14 2.38-5.14 5.79c0 3.38 2.03 5.79 5.13 5.79s5.14-2.42 5.14-5.79Zm9.78-18.86a2.78 2.78 0 1 0 0 5.56 2.78 2.78 0 0 0 0-5.56Zm-2.34 28.37h4.68V24.4h-4.68v18.94Zm28.8-9.7c.08 5.91-3.26 10.2-8.86 10.2-2.84 0-5.41-1.15-6.6-3.11v11.39h-4.56V24.4h4.22l.27 2.88c1.15-2.19 3.76-3.45 6.63-3.45 5.37 0 8.78 3.87 8.9 9.82Zm-4.72.23c0-3.37-1.96-5.79-5.22-5.79s-5.33 2.38-5.33 5.79 2.07 5.75 5.33 5.75 5.22-2.38 5.22-5.75Zm16.18-1.42-3.34-.8c-1.42-.38-2.38-.88-2.38-2.11 0-1.3 1.04-2.22 2.72-2.22 1.43-.17 2.72.84 2.9 2.27.02.13.02.25.02.38h4.26c-.15-3.76-2.95-6.14-7.05-6.14s-7.09 2.38-7.09 5.98c0 2.45 1.42 4.49 5.06 5.45l3.3.84c1.23.34 1.99.92 1.99 1.99 0 1.5-1.42 2.19-3.14 2.19-2.07 0-3.26-.96-3.26-2.61h-4.26c.15 3.76 3.07 6.17 7.59 6.17s7.48-2.38 7.48-6.06c0-2.72-1.69-4.56-4.79-5.33Zm20.63 1.88c0 3.41-1.3 5.33-4.37 5.33-2.38 0-4.03-1.15-4.03-5.06v-10.2h-4.68v11.85c0 4.53 2.45 7.59 6.94 7.59 2.4.08 4.7-1.02 6.14-2.95l.31 2.45h4.37V24.4h-4.68v9.93Zm17.51-6.4c2.23 0 3.68 1.42 3.68 4.1v11.31h4.56V32.5c0-3.11 1.76-4.56 3.99-4.56s3.72 1.42 3.72 4.1v11.31h4.53V30.97c0-4.37-2.42-7.13-7.02-7.13a6.221 6.221 0 0 0-6.06 3.6c-1.04-2.22-3.11-3.6-6.25-3.6a6.32 6.32 0 0 0-5.33 2.72l-.23-2.15h-4.29v18.94h4.68V32.46c0-3.07 1.8-4.53 4.03-4.53Zm-15.3 29.76c-.71.01-1.27.59-1.27 1.3.02.72.6 1.29 1.32 1.28.71-.01 1.28-.61 1.27-1.32s-.61-1.28-1.32-1.27Zm7.05 1.03c-1.61 0-2.64-1.25-2.64-3.19s1.08-3.19 2.68-3.19c1.1-.06 2.09.67 2.35 1.74h1.65c-.27-1.96-2-3.39-3.98-3.28-2.61 0-4.4 1.93-4.4 4.75s1.72 4.7 4.24 4.7c2.01.12 3.79-1.27 4.16-3.25h-1.65a2.389 2.389 0 0 1-2.4 1.72Zm13.87-3.19v.23c-.06 2.53-2.17 4.53-4.7 4.47-2.53-.06-4.53-2.17-4.47-4.7v-.23c.06-2.53 2.17-4.53 4.7-4.47 2.53.06 4.53 2.17 4.47 4.7Zm-1.74 0c.02-.21.02-.42 0-.63a2.865 2.865 0 0 0-3.16-2.53c-1.57.17-2.7 1.59-2.53 3.16-.02.21-.02.42 0 .63.17 1.57 1.59 2.7 3.16 2.53 1.57-.17 2.7-1.59 2.53-3.16Zm13.89-4.71c-.18-.02-.37-.02-.55 0-1.25-.08-2.42.63-2.92 1.78a2.947 2.947 0 0 0-2.93-1.78 2.91 2.91 0 0 0-2.6 1.39l-.13-1.14h-1.54v8.97h1.72v-5.39a2.13 2.13 0 0 1 1.91-2.32c.08 0 .17-.01.25 0 1.06-.05 1.97.77 2.02 1.84 0 .12 0 .24-.02.36v5.52h1.69v-5.37a2.13 2.13 0 0 1 1.89-2.34c.09 0 .18-.01.28-.01a1.93 1.93 0 0 1 2 1.85c0 .12 0 .23-.02.35v5.52h1.66v-5.88a3.033 3.033 0 0 0-2.71-3.33ZM63.35 36.57V38l-.02.29v.29l-.03.29-.02.29-.02.29-.02.29-.03.29-.03.29-.03.29-.04.29-.04.29-.04.29-.05.29-.05.29-.05.28-.05.29-.06.28-.06.28-.06.28-.07.28-.07.28-.07.28-.08.28-.08.28-.08.28-.08.28-.09.28-.09.28-.09.28-.1.28-.1.28-.1.28-.1.27-.11.27-.11.27-.11.27-.11.27-.12.27-.12.27-.12.27-.13.27-.13.27-.13.26-.14.26-.13.26-.14.26-.14.26-.15.26-.15.26-.15.26-.15.25-.16.25-.16.25-.16.25-.16.25-.17.25-.17.25-.17.24-.17.24-.18.24-.18.24-.18.24-.18.24-.19.23-.19.23-.19.23-.2.23-.2.23-.2.22-.2.22-.2.22-.21.22-.21.22-.21.22-.21.21-.22.21-.22.21-.23.21-.22.2-.22.2-.23.2-.23.2-.23.2-.23.2-.24.19-.24.19-.24.19-.24.19-.24.18-.25.18-.25.18-.25.18-.25.17-.25.17-.26.17-.26.17-.26.16-.26.16-.26.16-.27.16-.27.15-.27.15-.27.15-.27.15-.27.14-.27.14-.28.14-.28.14-.28.13-.28.13-.28.13-.28.12-.28.12-.29.12-.29.12-.29.11-.29.11-.29.11-.29.11-.29.1-.3.1-.3.1-.3.1-.3.09-.3.09-.3.09-.3.08-.3.08-.3.08-.3.07-.3.07-.31.07-.31.07-.31.06-.31.06-.31.06-.31.05-.31.05-.31.05-.31.04-.31.04-.31.04-.31.04-.31.03-.31.03-.32.03-.32.02-.32.02-.32.02h-.32l-.32.02h-1.9l-.32-.02h-.32l-.32-.03-.32-.02-.32-.02-.32-.03-.32-.03-.32-.03-.32-.04-.32-.04-.32-.04-.32-.05-.32-.05-.32-.05-.32-.05-.32-.06-.31-.06-.31-.06-.31-.07-.31-.07-.31-.07-.31-.07-.31-.08-.31-.08-.31-.09-.31-.09-.31-.09-.31-.1-.31-.1-.3-.1-.3-.1-.3-.11-.3-.11-.3-.11-.3-.12-.3-.12-.3-.12-.3-.13-.3-.13-.29-.13-.29-.13-.29-.14-.29-.14-.29-.14-.29-.15-.29-.15-.29-.15-.28-.15-.28-.16-.28-.16-.28-.16-.28-.17-.28-.17-.27-.17-.27-.17-.28-.17-.27-.18-.27-.18-.27-.18-.27-.19-.26-.19-.26-.19-.26-.2-.26-.2-.26-.2-.25-.2-.25-.21-.25-.21-.25-.21-.24-.21-.24-.22-.25-.22-.24-.22-.24-.22-.23-.23-.23-.23-.23-.23-.23-.23-.23-.24-.22-.24-.22-.24-.22-.24-.21-.24-.21-.25-.21-.25-.21-.25-.21-.25-.2-.26-.2-.26-.2-.26-.2-.26-.19-.26-.19-.27-.19-.27-.18-.27-.18-.27-.18-.27-.18-.27-.17-.28-.17-.28-.17-.28-.17-.28-.16-.28-.16-.29-.16-.29-.16-.29-.15-.29-.15-.29-.14-.29-.14-.3-.14-.3-.14-.3-.13-.3-.13-.3-.13-.3-.12-.3-.12-.31-.12-.31-.12-.31-.11-.31-.11-.31-.11-.31-.1-.31-.1-.31-.1-.32-.09-.32-.09-.32-.09-.32-.08-.32-.08-.32-.08-.32-.07-.32-.07-.32-.07-.32-.06-.33-.06-.33-.06-.33-.05-.33-.05-.33-.05-.33-.04-.33-.04-.33-.04-.33-.03-.33-.03-.33-.03-.34-.03-.33-.02-.33-.02-.33v-.33L0 35.15v-2l.02-.33.02-.33.02-.33.02-.33.03-.33.03-.33.03-.33.04-.33.04-.33.04-.33.05-.33.05-.33.05-.33.06-.33.06-.33.07-.33.07-.33.07-.33.07-.33.08-.33.08-.33.09-.33.09-.33.09-.33.1-.33.1-.32.1-.32.11-.32.11-.32.11-.32.12-.32.12-.32.12-.32.13-.32.13-.32.13-.31.14-.31.14-.31.14-.31.14-.31.15-.31.15-.31.16-.3.16-.3.16-.3.16-.3.17-.3.17-.3.17-.3.18-.3.18-.29.18-.29.19-.29.19-.29.19-.29.2-.28.2-.28.2-.28.2-.28.21-.28.21-.28.21-.27.22-.27.22-.27.22-.27.22-.27.23-.26.23-.26.23-.26.23-.26.24-.26.24-.25.24-.25.25-.25.25-.24.25-.24.25-.24.26-.24.26-.24.26-.23.26-.23.27-.23.27-.23.27-.22.27-.22.28-.22.28-.22.28-.21.28-.21.28-.21.29-.2.29-.2.29-.2.29-.2.3-.19.3-.19.3-.19.3-.18.3-.18.31-.18.31-.18.31-.17.31-.17.31-.17.32-.16.32-.16.32-.16.32-.15.32-.15.33-.15.33-.15.33-.14.33-.14.33-.14.33-.13.33-.13.34-.13.34-.12.34-.12.34-.12.34-.11.34-.11.34-.11.35-.1.35-.1.35-.1.35-.09.35-.09.35-.09.36-.09.35-.08.35-.08.35-.07.35-.07.36-.07.36-.06.36-.06.36-.06.36-.05.36-.05.36-.05.36-.04.36-.04.35-.03.36-.03.36-.03.36-.02 1.96-.12.11 9.42h1.14l.27.02h.27l.27.03.27.02.27.02.27.02.27.03.27.03.27.03.27.03.27.04.27.04.27.04.27.04.27.05.27.05.27.05.27.06.27.06.27.06.27.06.27.07.27.07.26.07.26.07.26.08.26.08.26.08.26.08.26.09.26.09.26.09.26.09.26.1.26.1.26.1.25.1.25.11.25.11.25.11.25.11.25.12.25.12.25.12.25.12.24.13.24.13.24.13.24.14.24.14.24.14.24.14.24.14.23.15.23.15.23.15.23.15.23.16.23.16.23.16.22.16.22.17.22.17.22.17.22.17.22.17.21.18.21.18.21.18.21.18.21.19.21.19.2.19.2.19.2.19.2.2.2.2.19.2.19.2.19.2.19.21.19.21.18.21.18.21.18.21.18.22.18.22.17.22.17.22.17.22.17.22.16.23.16.23.16.23.16.23.16.23.15.23.15.24.15.24.15.24.14.24.14.24.14.24.14.25.13.25.13.25.13.25.13.25.12.25.12.25.12.26.12.26.11.26.11.26.11.26.11.26.1.26.1.26.1.26.1.27.09.27.09.27.09.27.09.27.08.27.08.27.08.27.07.27.07.28.07.28.07.28.06.28.06.28.06.28.05.28.05.28.05.28.05.28.04.28.04.28.04.28.03.28.03.28.03.28.03.29.02.28.02.29.02.29v.29l.03.29v.29ZM32.47 22.11l-.09.02-.14.03-.14.03-.14.03-.14.04-.13.04-.13.04-.13.04-.13.04-.13.04-.13.04-.13.05-.13.05-.13.05-.13.06-.13.05-.13.05-.13.05-.13.05-.12.05-.12.06-.12.06-.12.06-.12.06-.12.06-.12.06-.12.06-.12.06-.12.07-.12.07-.12.07-.12.07-.12.07-.11.07-.11.07-.11.07-.11.07-.11.07-.11.08-.11.08-.11.08-.11.08-.11.08-.11.08-.1.08-.1.08-.1.08-.1.08-.1.08-.1.09-.1.09-.1.09-.1.09-.1.09-.09.09-.09.09-.09.09-.09.09-.09.09-.09.09-.09.1-.09.1-.09.1-.09.1-.08.1-.08.1-.08.1-.08.1-.08.1-.08.1-.08.1-.08.1-.08.1-.07.1-.07.1-.07.11-.07.11-.07.11-.07.11-.07.11-.07.11-.07.11-.06.11-.06.11-.06.11-.06.11-.06.11-.06.11-.06.11-.05.11-.05.11-.05.11-.05.11-.05.11-.05.11-.05.11-.05.11-.04.12-.04.11-.04.11-.04.12-.04.12-.04.12-.04.12-.04.12-.04.12-.03.12-.03.12-.03.12-.03.12-.03.12-.03.12-.03.12-.02.12-.02.12-.02.12-.02.12-.02.12-.02.12-.02.12-.02.12v.12l-.03.12v.12l-.02.12v.12l-.02.12v1.63l.02.12v.12l.02.12v.11l.03.12.02.11.02.11.02.11.02.11.02.11.02.11.02.11.02.11.03.11.03.11.03.11.03.11.03.11.03.11.03.11.03.11.03.11.04.11.04.11.04.11.04.11.04.11.04.11.04.1.04.1.04.1.04.1.04.1.05.1.05.1.05.1.05.1.05.1.05.1.05.1.05.1.05.1.05.1.06.1.06.09.06.09.06.09.06.09.06.09.06.09.06.09.06.09.06.09.06.09.07.09.07.09.07.09.07.09.07.08.07.08.07.08.07.08.07.08.07.08.07.08.07.08.07.08.07.08.08.08.08.08.08.08.08.07.08.07.08.07.08.07.08.07.08.07.08.07.08.07.08.07.08.07.08.07.08.06.09.06.09.06.09.06.09.06.09.06.09.06.09.06.09.06.09.05.09.05.09.05.09.05.09.05.09.05.09.05.09.05.09.05.09.05.09.05.09.04.09.04.09.04.09.04.09.04.1.04.09.04.1.04.1.04.1.04.1.04.1.03.1.03.1.03.1.03.1.03.1.03.1.03.1.03.1.03.1.02.1.02.1.02.1.02.1.02.1.02.1.02.1.02.1.02h.1l.1.03h.1l.1.03h.1l.1.02h.1l.1.02h.1l.1.02h1.39l.1-.02h.1l.09-.02h.09l.09-.02h.09l.09-.03h.09l.09-.03.09-.02.09-.02.09-.02.09-.02.09-.02.09-.02.09-.02.09-.02.09-.02.09-.02.09-.03.09-.03.09-.03.09-.03.09-.03.09-.03.09-.03.09-.03.09-.03.09-.03.08-.03-.06-.03.08-.03.08-.04.08-.04.08-.04.08-.04.08-.04.08-.04.08-.04.08-.04.08-.04.08-.04.08-.04.08-.04.08-.04.08-.05.08-.05.08-.05.07-.05.07-.05.07-.05.07-.05.07-.05.07-.05.07-.05.07-.05.07-.05.07-.05.07-.05.07-.05.07-.05.07-.05.07-.05.06-.06.06-.06.06-.06.06-.06.06-.06.06-.06.06-.06.06-.06.06-.06.06-.06.06-.06.06-.06.06-.06.05-.06.05-.06.05-.06.05-.06.05-.06.05-.06.05-.07.05-.07.05-.07.05-.07.05-.07.05-.07.05-.07.04-.07.04-.07.04-.07.04-.07.04-.07.04-.07.04-.07.04-.07.04-.07.04-.07.04-.07.04-.07.03-.07.03-.07.03-.07.03-.07.03-.07.03-.07.03-.07.03-.07.03-.07.03-.07.03-.07.03-.07.03-.07.03-.07.02-.07.02-.07.02-.07.02-.07.02-.07.02-.07.02-.07.02-.07.02-.07.02-.07.02-.07.02-.07v-.07l.03-.07v-.07l.03-.07v-.07l.02-.07v-.07l.02-.07v-.07l.02-.07v-1.36l-.02-.07v-.07l-.02-.07v-.07l-.03-.06v-.07l-.02-.07V36l-.03-.07v-.07l-.03-.07-.02-.07-.02-.07-.02-.07-.02-.07-.02-.07-.02-.07-.02-.07-.02-.06-.02-.06-.02-.06-.02-.06-.02-.06-.02-.06-.02-.06-.03-.06-.03-.06-.03-.06-.03-.06-.03-.06-.03-.06-.03-.06-.03-.06-.03-.06-.03-.06-.03-.06-.03-.06-.03-.06-.03-.06-.03-.06-.03-.06-.03-.05-.03-.05-.03-.05-.04-.05-.03-.05-.04-.05-.04-.05-.03-.04-.04-.05-.04-.05-.04-.05-.04-.05-.04-.05-.04-.05-.04-.05-.04-.05-.04-.05-.04-.05-.04-.05-.04-.05-.04-.04-.04-.04-.04-.04-.04-.04-.04-.04-.04-.04-.04-.04-.04-.04-.04-.04-.04-.04-.05-.04-.04-.04-.05-.04-.05-.04-.05-.04-.05-.04-.05-.04-.05-.03-.05-.03-.05-.03-.05-.03-.05-.03-.05-.03-.05-.03-.05-.03-.05-.03-.05-.03-.05-.03-.05-.03-.05-.03-.05-.03-.05-.03-.05-.03-.05-.03-.05-.03-.05-.03-.05-.02-.05-.02-.05-.02-.05-.02-.05-.02-.05-.02-.05-.02-.05-.02-.05-.02-.05-.02-.05-.02-.05-.02-.05-.02-.05-.02-.05-.02h-.05l-.05-.03h-.05l-.05-.03h-.05l-.05-.03h-.05l-.05-.02h-.05l-.05-.02h-.05l-.05-.02h-.05l-.05-.02h-.05l-.05-.02h-.1l-.05-.02h-1.1l-.05.02h-.1l-.05.02h-.05l-.05.02h-.05l-.05.02h-.05l-.05.02-1.92.46-.11-9.52Zm-.11-9.48-.22.03-.23.03-.23.04-.23.04-.23.04-.23.04-.23.05-.23.05-.23.05-.23.05-.23.05-.23.06-.23.06-.22.06-.23.07-.22.07-.22.07-.22.07-.22.07-.22.08-.22.08-.22.08-.22.08-.22.08-.22.08-.22.09-.21.09-.21.09-.21.09-.21.1-.21.1-.21.1-.21.1-.21.1-.2.1-.2.11-.2.11-.2.11-.2.11-.2.11-.2.12-.2.12-.2.12-.2.11-.19.12-.19.13-.19.13-.19.13-.19.13-.18.13-.18.14-.18.14-.18.14-.18.14-.18.14-.18.14-.17.15-.17.15-.17.15-.17.15-.17.15-.17.15-.16.15-.16.16-.16.16-.16.16-.16.16-.16.16-.15.16-.15.16-.15.16-.15.17-.15.17-.14.17-.14.17-.14.17-.14.17-.14.17-.14.18-.13.18-.13.18-.13.18-.13.18-.13.18-.12.18-.12.18-.12.18-.12.19-.12.19-.11.19-.11.19-.11.19-.11.19-.11.19-.1.19-.1.19-.1.19-.1.2-.1.2-.09.2-.09.2-.09.2-.09.2-.09.2-.08.2-.08.2-.08.2-.08.2-.07.2-.07.2-.07.2-.07.2-.07.21-.06.21-.06.21-.06.21-.06.21-.05.21-.05.21-.05.21-.05.21-.05.21-.04.21-.04.21-.04.21-.04.21-.03.21-.03.21-.03.21-.03.21-.03.21-.03.21-.02.21-.02.21-.02.21-.02.21v.21l-.03.21v.21l-.02.21v1.47l.02.21v.21l.03.21.02.21.02.21.02.21.02.21.02.21.03.21.03.21.03.21.03.2.03.21.04.2.04.2.04.2.04.2.05.2.05.2.05.2.05.2.05.2.06.2.06.2.06.2.06.2.06.2.07.2.07.2.07.19.07.19.07.19.08.19.08.19.08.19.08.19.08.19.08.19.09.19.09.18.09.18.09.18.09.18.1.18.1.18.1.18.1.18.1.18.1.17.11.17.11.17.11.17.11.17.11.17.11.17.12.17.12.17.12.16.12.16.12.16.12.16.13.16.13.16.13.16.13.15.13.15.13.15.14.15.14.15.14.15.14.15.14.14.14.14.14.14.15.14.15.14.15.14.15.14.15.13.15.13.15.13.15.13.15.13.16.13.16.12.16.12.16.12.16.12.16.12.16.12.16.11.17.11.17.11.17.11.17.11.17.11.17.1.17.1.17.1.17.1.17.1.17.1.17.09.18.09.18.09.18.09.18.09.18.08.18.08.18.08.18.08.18.08.18.08.18.07.18.07.18.07.18.07.18.07.18.06.19.06.19.06.19.06.19.06.19.05.19.05.19.05.19.05.19.05.19.04.19.04.19.04.19.04.19.04.19.03.19.03.19.03.19.03.19.03.19.03.19.02.19.02.19.02.19.02.19.02h.19l.19.03h.19l.19.02h1.91l.19-.02h.19l.19-.03.19-.02.19-.02.19-.02.19-.02.19-.03.19-.03.19-.03.19-.03.19-.03.18-.03.18-.04.18-.04.18-.04.18-.04.18-.04.18-.05.18-.05.18-.05.18-.05.18-.05.18-.05.18-.05.18-.06.18-.06.18-.06.18-.07.17-.06.17-.07.17-.07.17-.07.17-.07.17-.07.17-.07.17-.08.17-.08.17-.08.17-.08.16-.08.16-.08.16-.08.16-.09.16-.09.16-.09.16-.09.16-.09.16-.09.16-.09.15-.1.15-.1.15-.1.15-.1.15-.1.15-.1.15-.1.15-.11.15-.11.14-.11.14-.11.14-.11.14-.11.14-.11.14-.11.14-.12.14-.12.13-.12.13-.12.13-.12.13-.12.13-.12.12-.12.12-.13.12-.13.12-.13.12-.13.12-.13.12-.13.12-.13.11-.13.11-.13.12-.13.11-.14.11-.14.11-.14.11-.14.1-.14.1-.14.1-.14.1-.14.1-.14.1-.14.1-.14.09-.15.09-.15.09-.15.09-.15.09-.15.09-.15.08-.15.08-.15.08-.15.08-.15.08-.15.08-.15.07-.15.07-.15.07-.16.07-.16.07-.16.07-.16.06-.16.06-.16.06-.16.06-.16.06-.16.06-.16.05-.16.05-.16.05-.16.05-.16.05-.16.05-.16.04-.16.04-.16.04-.16.04-.16.04-.16.04-.16.03-.16.03-.16.03-.16.03-.16.03-.16.03-.16.02-.17.02-.16.02-.16.02-.16.02-.16.02-.17v-.16l.02-.16v-.17l.02-.16v-1.47l-.02-.16v-.16l-.02-.16v-.16l-.03-.16-.02-.16-.02-.16-.02-.16-.02-.16-.02-.16-.03-.16-.03-.16-.03-.16-.03-.16-.03-.16-.03-.16-.03-.16-.04-.16-.04-.16-.04-.16-.04-.16-.04-.15-.04-.15-.05-.15-.05-.15-.05-.15-.05-.15-.05-.14-.05-.15-.05-.15-.06-.15-.06-.15-.06-.15-.06-.15-.06-.15-.06-.15-.07-.14-.07-.14-.07-.14-.07-.14-.07-.14-.07-.14-.07-.14-.08-.14-.08-.14-.08-.14-.08-.14-.08-.14-.08-.13-.08-.13-.08-.13-.09-.13-.09-.13-.09-.13-.09-.13-.09-.13-.09-.13-.09-.13-.09-.12-.1-.12-.1-.12-.1-.12-.1-.12-.1-.12-.1-.12-.1-.12-.1-.12-.1-.11-.1-.11-.11-.11-.11-.11-.11-.11-.11-.11-.11-.11-.11-.11-.11-.11-.11-.1-.11-.1-.11-.1-.12-.1-.12-.1-.12-.1-.12-.1-.12-.09-.12-.09-.12-.09-.12-.09-.12-.09-.12-.09-.12-.09-.13-.09-.13-.08-.13-.08-.13-.08-.13-.08-.13-.08-.13-.08-.13-.08-.13-.08-.13-.07-.13-.07-.13-.07-.13-.07-.13-.07-.14-.07-.14-.07-.14-.06-.14-.06-.14-.06-.14-.06-.14-.06-.14-.06-.14-.06-.14-.05-.14-.05-.14-.05-.14-.05-.14-.05-.14-.05-.14-.05-.14-.04-.14-.04-.14-.04-.14-.04-.14-.04-.14-.04-.14-.04-.14-.03-.14-.03-.14-.03-.14-.03-.14-.03-.14-.02-.15-.03-.14-.02-.15-.02-.14-.02-.15-.02-.14-.02-.15-.02-.15-.02h-.14l-.15-.03h-.14l-.15-.02h-.14l-.14-.02h-.67l.08 6.29h.62l.08.02h.08l.08.02h.08l.08.02h.08l.08.02h.08l.08.03.08.02.08.02.08.02.08.02.08.02.08.02.08.02.08.02.08.02.08.02.08.02.08.02.08.03.08.03.08.03.08.03.08.03.08.03.08.03.08.03.08.03.08.03.08.03.08.04.08.04.08.04.08.04.08.04.08.04.08.04.08.04.08.04.08.04.08.04.08.04.08.05.08.05.08.05.08.05.08.05.08.05.08.05.07.05.07.05.07.05.07.05.07.05.07.06.07.06.07.06.07.06.07.06.07.06.07.06.07.06.07.06.07.06.07.06.07.07.06.07.07.07.06.07.06.07.06.07.06.07.06.07.06.07.06.07.06.07.06.07.06.07.06.07.06.08.06.08.06.08.05.08.05.08.05.08.05.08.05.08.05.08.05.08.05.08.05.08.05.08.05.08.05.08.05.09.04.08.04.09.04.09.04.09.04.09.04.09.04.09.04.09.04.09.04.09.04.09.03.09.03.09.03.09.03.09.03.09.03.09.03.09.03.09.03.09.03.1.03.1.03.1.02.1.02.1.02.1.02.1.02.1.02.1.02.1.02.1.02.1v.1l.03.1v.1l.02.1v.1l.02.1v.1l.02.1v1.41l-.02.1v.1l-.02.1v.1l-.02.1v.1l-.03.1-.02.1-.02.1-.02.1-.02.1-.02.1-.02.1-.02.1-.02.1-.03.1-.03.1-.03.1-.03.1-.03.1-.03.1-.03.1-.03.1-.04.1-.04.1-.04.1-.04.1-.04.1-.04.1-.04.1-.04.1-.04.1-.04.1-.05.1-.05.1-.05.1-.05.1-.05.1-.05.1-.05.1-.05.1-.05.1-.05.1-.06.1-.06.1-.06.09-.06.09-.06.09-.06.09-.06.09-.06.09-.07.09-.07.09-.07.09-.07.09-.07.09-.07.09-.07.09-.07.09-.07.09-.07.09-.07.09-.08.08-.08.08-.08.08-.08.08-.08.08-.08.08-.08.08-.08.08-.08.08-.08.08-.09.08-.09.08-.09.08-.09.08-.09.07-.09.07-.09.07-.09.07-.09.07-.09.07-.09.07-.1.07-.1.07-.1.07-.1.07-.08.11-.1.06-.1.06-.1.06-.1.06-.1.06-.1.06-.1.06-.1.06-.1.06-.11.06-.11.05-.11.05-.11.05-.11.05-.11.05-.11.05-.11.05-.11.05-.11.05-.11.04-.11.04-.11.04-.11.04-.11.04-.12.04-.12.04-.12.04-.12.04-.12.04-.12.03-.12.03-.12.03-.12.03-.12.03-.12.03-.12.03-.12.03-.12.03-.12.02-.12.02-.12.02-.12.02-.12.02-.12.02-.12.02-.12.02h-.12l-.13.03h-.13l-.13.02h-.13l-.13.02h-1.66l-.13-.02h-.13l-.13-.02h-.13l-.13-.03-.13-.02-.13-.02-.13-.02-.13-.02-.13-.02-.13-.02-.13-.02-.13-.03-.13-.03-.13-.03-.13-.03-.13-.03-.13-.03-.13-.03-.13-.04-.13-.04-.13-.04-.13-.04-.13-.04-.13-.04-.13-.04-.12-.04-.12-.04-.12-.05-.12-.05-.12-.05-.12-.05-.12-.05-.12-.05-.12-.05-.12-.05-.12-.06-.12-.06-.12-.06-.12-.06-.12-.06-.12-.06-.12-.06-.12-.07-.12-.07-.12-.07-.12-.07-.12-.07-.11-.07-.11-.07-.11-.07-.11-.07-.11-.08-.11-.08-.11-.08-.11-.08-.11-.08-.11-.08-.11-.08-.11-.09-.11-.09-.11-.09-.11-.09-.1-.09-.1-.09-.1-.09-.1-.09-.1-.09-.1-.1-.1-.1-.1-.1-.1-.1-.1-.1-.1-.1-.1-.1-.09-.1-.09-.1-.09-.1-.09-.11-.09-.11-.09-.11-.09-.11-.09-.11-.09-.11-.08-.11-.08-.11-.08-.11-.08-.11-.08-.11-.08-.12-.08-.12-.08-.12-.08-.12-.08-.12-.07-.12-.07-.12-.07-.13-.07-.12-.07-.12-.07-.12-.07-.12-.07-.13-.06-.13-.06-.13-.06-.13-.06-.13-.06-.13-.06-.13-.06-.13-.05-.13-.05-.13-.05-.13-.05-.13-.05-.14-.05-.14-.05-.14-.04-.13-.04-.14-.04-.14-.04-.14-.04-.14-.04-.14-.04-.14-.04-.14-.03-.14-.03-.14-.03-.14-.03-.14-.03-.14-.03-.14-.03-.14-.02-.14-.02-.14-.02-.14-.02-.14-.02-.15-.02-.15-.02-.15v-.15l-.03-.15v-.15l-.02-.15v-1.78l.02-.15v-.15l.03-.15.02-.15.02-.15.02-.15.02-.15.02-.15.02-.15.02-.15.03-.15.03-.15.03-.15.03-.15.03-.15.03-.15.04-.15.04-.15.04-.15.04-.15.04-.15.04-.15.04-.15.05-.15.05-.14.05-.15.05-.14.05-.14.05-.14.06-.14.06-.14.06-.14.06-.14.06-.14.06-.14.07-.14.07-.14.07-.14.07-.14.07-.14.07-.14.07-.14.08-.14.08-.14.08-.14.08-.13.08-.13.08-.13.08-.13.09-.13.09-.13.09-.13.09-.13.09-.13.09-.13.09-.13.1-.13.1-.12.1-.12.1-.12.1-.12.1-.12.1-.12.1-.12.11-.12.11-.12.11-.12.11-.12.11-.12.11-.11.11-.11.12-.11.12-.11.12-.11.12-.11.12-.11.12-.11.12-.11.12-.1.13-.1.13-.1.13-.1.13-.1.13-.1.13-.1.13-.1.13-.1.14-.09.13-.1.14-.09.14-.09.14-.09.14-.09.14-.09.14-.09.14-.08.14-.08.14-.08.15-.08.15-.08.15-.08.15-.08.15-.07.15-.07.15-.07.15-.07.15-.07.15-.07.15-.07.16-.06.16-.06.16-.06.16-.06.16-.06.16-.06.16-.05.16-.05.16-.05.16-.05.16-.05.16-.05.16-.04.16-.04.17-.04.17-.04.17-.04.17-.04.17-.03.17-.03.17-.03.08-.02-.08-6.44Zm27.95 24.01v-.26l-.02-.26v-.26l-.03-.26-.02-.26-.02-.26-.02-.26-.02-.25-.03-.25-.03-.25-.03-.25-.04-.25-.04-.25-.04-.25-.04-.25-.05-.25-.05-.25-.05-.25-.05-.25-.06-.25-.06-.25-.06-.25-.06-.25-.07-.24-.07-.24-.07-.24-.07-.24-.08-.24-.08-.24-.08-.24-.08-.24-.09-.24-.09-.24-.09-.24-.09-.23-.1-.23-.1-.23-.1-.23-.1-.23-.1-.23-.11-.23-.11-.23-.11-.23-.11-.22-.11-.22-.12-.22-.12-.22-.13-.22-.12-.22-.13-.22-.13-.22-.13-.21-.13-.21-.13-.21-.14-.21-.14-.21-.14-.21-.14-.21-.15-.2-.15-.2-.15-.2-.15-.2-.15-.2-.16-.2-.16-.19-.16-.19-.16-.19-.16-.19-.16-.19-.17-.18-.17-.18-.17-.18-.17-.18-.17-.18-.17-.18-.18-.18-.18-.17-.18-.17-.18-.17-.18-.17-.18-.16-.19-.16-.19-.16-.19-.16-.19-.16-.19-.16-.19-.15-.2-.15-.2-.15-.2-.15-.2-.15-.2-.14-.2-.14-.2-.14-.21-.14-.21-.14-.2-.13-.21-.13-.21-.13-.21-.13-.21-.12-.21-.12-.21-.12-.22-.12-.22-.12-.22-.11-.22-.11-.22-.11-.22-.11-.22-.1-.22-.1-.22-.1-.22-.1-.23-.1-.22-.09-.23-.09-.23-.09-.23-.09-.23-.08-.23-.08-.23-.08-.23-.08-.23-.08-.23-.07-.23-.07-.23-.07-.23-.07-.23-.06-.23-.06-.24-.06-.24-.06-.24-.05-.24-.05-.24-.05-.24-.05-.24-.04-.24-.04-.24-.04-.24-.04-.24-.03-.24-.03-.24-.03-.24-.03-.24-.03-.24-.02-.24-.02-.24-.02-.24-.02h-.24l-.24-.03h-.24l-.24-.02h-.77l.08 6.37h1.01l.17.02h.18l.17.02.17.02.17.02.17.02.17.02.18.02.17.02.17.03.17.03.17.03.18.03.17.03.17.03.17.04.17.04.17.04.17.04.17.04.17.04.17.05.17.05.17.05.17.05.17.05.17.05.17.06.17.06.17.06.17.06.17.06.17.07.17.07.17.07.17.07.16.07.17.07.16.08.16.08.16.08.16.08.16.08.16.08.16.09.16.09.16.09.16.09.16.09.16.09.15.1.15.1.15.1.15.1.15.1.15.1.15.1.15.11.15.11.15.11.15.11.15.11.14.11.14.11.14.12.14.12.14.12.14.12.14.12.14.12.14.13.13.13.13.13.13.13.13.13.13.13.13.13.13.14.12.14.12.14.12.14.12.14.12.14.12.14.12.15.11.15.11.15.11.15.11.15.11.15.11.15.11.15.11.15.1.16.1.16.1.16.1.16.1.16.1.16.09.16.09.16.09.16.09.16.09.17.09.17.08.17.08.17.08.17.08.17.08.17.08.17.07.17.07.17.07.17.07.18.07.18.07.18.06.18.06.18.06.18.06.18.06.18.05.18.05.18.05.18.05.18.05.18.04.18.04.19.04.19.04.19.04.19.04.19.03.19.03.19.03.19.03.19.03.19.02.19.02.19.02.19.02.19.02.19v.19l.03.19v.19l.02.19v1.55l-.02.19v.2l-.03.2-.02.2-.02.2-.02.2-.02.19-.02.2-.03.19-.03.19-.03.19-.03.19-.03.19-.04.19-.04.19-.04.19-.04.19-.04.19-.05.19-.05.19-.05.19-.05.19-.05.19-.06.19-.06.19-.06.19-.06.19-.06.19-.07.19-.07.19-.07.19-.07.19-.07.19-.08.18-.08.18-.08.18-.08.18-.08.18-.09.18-.09.18-.09.18-.09.18-.09.18-.1.18-.1.18-.1.18-.1.18-.1.17-.1.17-.11.17-.11.17-.11.17-.11.17-.11.17-.12.17-.12.17-.12.17-.12.17-.12.16-.12.16-.13.16-.13.16-.13.16-.13.16-.13.16-.14.16-.14.15-.14.15-.14.15-.14.15-.14.15-.15.15-.15.15-.15.15-.15.14-.15.14-.15.14-.16.14-.16.14-.16.14-.16.14-.16.13-.16.13-.16.13-.17.13-.17.13-.17.13-.17.12-.17.12-.17.12-.17.12-.17.12-.18.12-.18.12-.18.11-.18.11-.18.11-.18.11-.18.11-.18.1-.19.1-.19.1-.19.1-.19.1-.19.1-.19.1-.19.09-.19.09-.2.09-.2.09-.2.09-.2.08-.2.08-.2.08-.2.08-.2.08-.2.07-.2.07-.21.07-.21.07-.21.07-.21.06-.21.06-.21.06-.21.06-.21.06-.21.05-.21.05-.21.05-.21.05-.21.05-.22.04-.21.04-.22.04-.22.04-.22.03-.22.03-.22.03-.22.03-.22.03-.22.03-.22.02-.22.02-.22.02-.22.02h-.22l-.22.03h-.22l-.22.02h-1.54l-.22-.02h-.22l-.22-.03-.22-.02-.22-.02-.22-.02-.22-.02-.22-.03-.22-.03-.22-.03-.22-.03-.22-.03-.22-.04-.22-.04-.22-.04-.22-.04-.22-.05-.22-.05-.22-.05-.22-.05-.22-.05-.22-.06-.22-.06-.22-.06-.22-.06-.22-.07-.22-.07-.22-.07-.22-.07-.21-.07-.21-.08-.21-.08-.21-.08-.21-.08-.21-.08-.21-.09-.21-.09-.21-.09-.21-.09-.21-.1-.21-.1-.21-.1-.2-.1-.2-.1-.2-.1-.2-.11-.2-.11-.2-.11-.2-.11-.2-.12-.2-.12-.2-.12-.19-.12-.19-.12-.19-.13-.19-.13-.19-.13-.19-.13-.19-.13-.19-.13-.18-.14-.18-.14-.18-.14-.18-.14-.18-.15-.17-.14-.18-.15-.18-.15-.17-.15-.17-.15-.17-.16-.17-.16-.17-.16-.17-.16-.17-.16-.16-.16-.16-.17-.16-.17-.16-.17-.16-.17-.15-.17-.15-.17-.15-.18-.15-.18-.15-.18-.15-.18-.15-.18-.14-.18-.14-.18-.14-.19-.14-.19-.14-.19-.13-.19-.13-.19-.13-.2-.13-.2-.13-.2-.12-.2-.12-.2-.12-.2-.12-.2-.12-.2-.11-.2-.11-.21-.11-.21-.11-.21-.11-.21-.1-.21-.1-.21-.1-.21-.1-.21-.1-.22-.09-.22-.09-.22-.09-.22-.09-.22-.08-.22-.08-.22-.08-.22-.08-.22-.08-.22-.07-.22-.07-.23-.07-.23-.07-.23-.06-.23-.06-.23-.06-.23-.06-.23-.05-.23-.05-.23-.05-.23-.05-.23-.05-.23-.04-.23-.04-.24-.04-.23-.04-.24-.03-.24-.03-.24-.03-.24-.03-.24-.02-.24-.02-.24-.02-.24-.02-.24v-.24l-.03-.24v-.24l-.02-.24v-1.44l.02-.24v-.24l.03-.24.02-.24.02-.24.02-.24.03-.24.03-.24.03-.24.03-.24.04-.24.04-.24.04-.24.04-.24.04-.24.05-.24.05-.24.05-.24.05-.24.06-.24.06-.24.06-.24.07-.24.07-.24.07-.23.07-.23.08-.23.08-.23.08-.23.08-.23.09-.23.09-.23.09-.23.09-.23.09-.23.1-.23.1-.23.1-.23.1-.22.11-.22.11-.22.11-.22.11-.22.12-.22.12-.22.12-.22.12-.22.12-.22.13-.21.13-.21.13-.21.13-.21.14-.21.14-.21.14-.21.14-.21.15-.21.15-.2.15-.2.15-.2.15-.2.16-.2.16-.2.16-.2.16-.19.16-.19.17-.19.17-.19.17-.19.17-.19.17-.18.18-.18.18-.18.18-.18.18-.18.18-.18.19-.18.19-.17.19-.17.19-.17.19-.17.2-.17.2-.16.2-.16.2-.16.2-.16.2-.16.21-.16.21-.15.21-.15.21-.15.21-.15.22-.15.22-.14.22-.14.22-.14.22-.14.22-.13.22-.13.22-.13.23-.13.23-.13.23-.12.23-.12.23-.12.23-.12.23-.11.24-.11.24-.11.24-.11.24-.11.24-.1.24-.1.24-.1.24-.1.25-.09.25-.09.25-.09.25-.09.25-.08.25-.08.25-.08.25-.08.25-.08.26-.07.26-.07.26-.07.26-.07.26-.06.26-.06.26-.06.26-.05.26-.05.26-.05.26-.05.26-.04.26-.04.26-.04.26-.04.27-.03h.1l-.08-6.42h-.07l-.33.04-.33.04-.33.04-.33.04-.33.05-.33.05-.33.05-.33.06-.33.06-.33.06-.32.07-.32.07-.33.07-.32.08-.32.08-.32.08-.32.09-.32.09-.32.09-.32.1-.31.1-.31.1-.31.1-.31.11-.31.11-.31.11-.31.12-.31.12-.3.12-.3.12-.3.13-.3.13-.3.13-.3.14-.3.14-.29.14-.29.15-.29.15-.29.15-.29.15-.29.16-.28.16-.28.16-.28.16-.28.17-.28.17-.27.17-.27.17-.27.18-.27.18-.27.18-.27.18-.26.19-.26.19-.26.19-.26.19-.25.2-.25.2-.25.2-.25.2-.25.21-.24.21-.24.21-.24.21-.24.21-.23.22-.23.22-.23.22-.23.22-.22.23-.22.23-.22.23-.22.23-.21.23-.21.24-.21.24-.21.24-.2.24-.2.24-.2.25-.2.25-.19.25-.19.25-.19.25-.19.26-.18.26-.18.26-.18.26-.17.26-.17.26-.17.26-.17.27-.16.27-.16.27-.16.27-.15.27-.15.27-.15.28-.15.28-.14.28-.14.28-.14.28-.14.28-.13.28-.13.28-.13.28-.12.29-.12.29-.12.28-.11.29-.11.29-.11.29-.1.29-.1.29-.1.29-.1.29-.09.29-.09.3-.09.3-.08.3-.08.3-.08.3-.08.3-.07.3-.07.3-.07.3-.06.3-.06.3-.06.3-.05.3-.05.3-.05.3-.04.3-.04.3-.04.3-.03.3-.03.3-.03.3-.03.3-.02.3-.02.3-.02.3v.3l-.02.3v1.8l.02.3.02.3.02.3.02.3.02.3.03.3.03.3.03.3.04.3.04.3.04.3.05.3.05.3.05.3.06.3.06.3.06.3.06.29.07.29.07.29.07.29.08.29.08.29.08.29.09.29.09.29.09.29.09.29.1.28.1.28.1.28.1.28.11.28.11.28.11.28.12.28.12.27.12.27.12.27.13.27.13.27.13.27.14.27.14.26.14.26.14.26.15.26.15.26.15.26.15.26.16.25.16.25.16.25.16.25.17.25.17.24.17.24.17.24.18.24.18.24.18.24.18.23.19.23.19.23.19.23.19.23.19.22.2.22.2.22.2.22.2.22.2.21.21.21.21.21.21.21.21.21.21.2.22.2.22.2.22.2.22.19.22.19.23.19.23.19.23.18.23.18.23.18.23.18.24.17.24.17.24.17.24.17.24.17.24.16.25.16.25.16.25.16.25.15.25.15.25.15.26.15.26.14.26.14.26.14.26.13.26.13.26.13.26.13.27.12.27.12.27.12.27.12.27.11.27.11.27.11.27.11.27.1.27.1.28.1.28.09.28.09.28.09.28.09.28.08.28.08.28.08.28.08.28.07.28.07.28.07.28.06.28.06.28.06.28.06.29.05.28.05.29.05.29.04.29.04.29.04.29.04.29.03.29.03.29.03.29.02.29.02.29.02.29.02h.29l.29.02h2.01l.29-.02h.29l.28-.03.29-.02.28-.02.28-.03.28-.03.28-.03.28-.03.28-.04.28-.04.28-.04.28-.04.28-.05h.29l.28-.05.28-.06.28-.06.28-.06.28-.06.28-.07.27-.07.26-.07.27-.08.27-.08.27-.08.27-.08.27-.08.27-.09.27-.09.27-.09.26-.1.26-.1.26-.1.26-.1.26-.11.26-.11.26-.11.26-.11.25-.11.25-.12.25-.12.25-.12.25-.12.25-.13.25-.13.24-.13.24-.13.24-.14.24-.14.24-.14.24-.14.23-.15.24-.15.23-.15.23-.15.23-.15.23-.16.23-.16.22-.16.22-.16.22-.17.22-.17.22-.17.21-.17.21-.17.21-.17.21-.18.21-.18.2-.18.2-.18.2-.18.2-.19.2-.19.2-.19.19-.19.19-.19.19-.2.19-.2.18-.2.18-.2.18-.2.18-.2.17-.2.17-.21.17-.21.17-.21.17-.21.16-.21.16-.21.16-.22.16-.22.16-.22.15-.22.15-.22.15-.22.14-.22.14-.23.14-.23.14-.23.14-.23.13-.23.13-.23.13-.23.13-.23.12-.23.12-.24.12-.24.12-.24.11-.24.11-.24.11-.24.11-.24.1-.24.1-.24.1-.24.1-.24.09-.25.09-.25.09-.25.08-.25.08-.25.08-.25.08-.25.08-.25.07-.25.07-.25.07-.25.06-.25.06-.25.06-.25.06-.25.05-.25.05-.26.05-.26.05-.26.04-.26.04-.26.04-.26.04-.26.03-.26.03-.26.03-.26.03-.26.02-.26.02-.26.02-.26v-.26l.03-.26v-.26l.02-.26v-1.03Z"/></svg>