<svg xmlns="http://www.w3.org/2000/svg" viewBox="0 0 161.95 56.68"><path fill-rule="evenodd" d="M38.14 29.22c0 2.31-1.4 3.96-3.53 3.96s-3.53-1.65-3.53-3.96 1.4-3.96 3.53-3.96 3.53 1.63 3.53 3.96Zm11.27-4.07h-.3a3.42 3.42 0 0 0-3.41 3.44c0 .1 0 .19.01.29 0 2.18 1.39 3.81 3.4 3.81 1.99.04 3.65-1.54 3.69-3.53v-.28a3.572 3.572 0 0 0-3.39-3.73Zm14.98.1c-2.13 0-3.53 1.63-3.53 3.96s1.4 3.96 3.53 3.96 3.53-1.65 3.53-3.96-1.4-3.96-3.53-3.96Zm21.58.03c-2.24 0-3.66 1.63-3.66 3.96s1.42 3.94 3.66 3.94 3.58-1.63 3.58-3.94-1.34-3.96-3.58-3.96Zm75.98 3.06c0 15.65-36.25 28.34-80.98 28.34S0 43.99 0 28.34 36.25 0 80.98 0s80.98 12.69 80.98 28.34ZM25.88 16.19h-3.21v19.53h3.21V16.19Zm15.5 13.02c.2-3.56-2.52-6.62-6.09-6.82a7.71 7.71 0 0 0-.68 0 6.465 6.465 0 0 0-6.77 6.15c-.01.23 0 .45 0 .68a6.457 6.457 0 0 0 6.08 6.82c.23.01.46.01.68 0 3.57.17 6.6-2.58 6.77-6.15.01-.23 0-.45 0-.68Zm14.66-6.46H53.2l-.18 1.76a4.873 4.873 0 0 0-4.35-2.18c-3.71 0-6.21 2.81-6.21 6.62s2.45 6.51 6.11 6.51c1.69.1 3.33-.66 4.34-2.02v2.21c.01.17.01.34 0 .5a3.318 3.318 0 0 1-3.58 3.04c-2 0-3.37-.97-3.55-2.68h-3.24a6.258 6.258 0 0 0 6.6 5.59c4.22 0 6.9-2.76 6.9-7.04V22.74Zm15.12 6.46c.05-3.74-2.95-6.8-6.68-6.85-3.74-.05-6.8 2.95-6.85 6.68v.16c-.05 3.74 2.95 6.8 6.68 6.85 3.74.05 6.8-2.95 6.85-6.68v-.16Zm5.08-6.46h-3.21v12.97h3.21V22.75Zm.32-4.57c0-1.05-.87-1.9-1.92-1.89a1.9 1.9 0 1 0 0 3.8h.01c1.06 0 1.91-.86 1.91-1.92Zm16.24 10.9c-.08-4.07-2.42-6.72-6.11-6.72-1.84-.11-3.58.8-4.55 2.36l-.18-1.97h-2.9v18.98h3.14v-7.8a5.232 5.232 0 0 0 4.53 2.13c3.84 0 6.13-2.94 6.08-6.98Zm11.15 2.83c0-1.86-1.16-3.12-3.29-3.65l-2.29-.55c-.97-.26-1.63-.6-1.63-1.44 0-.89.71-1.52 1.87-1.52.09-.01.18-.02.27-.01.98.03 1.76.84 1.73 1.83h2.92c-.1-2.57-2.03-4.2-4.84-4.2s-4.87 1.63-4.87 4.1c0 1.68.97 3.07 3.47 3.73l2.26.58c.84.24 1.37.63 1.37 1.36 0 1.03-.97 1.5-2.16 1.5-1.42 0-2.24-.66-2.24-1.78H93.6c.1 2.57 2.1 4.23 5.21 4.23s5.14-1.63 5.13-4.16Zm14.08-9.15h-3.21v6.8c0 2.34-.9 3.65-3 3.65-1.63 0-2.76-.79-2.76-3.47v-6.98h-3.21v8.11c0 3.1 1.69 5.2 4.77 5.2 1.65.05 3.22-.7 4.21-2.02l.21 1.68h3V22.76Zm22.87 4.49c0-2.99-1.66-4.88-4.82-4.88-1.76-.12-3.42.86-4.16 2.47a4.753 4.753 0 0 0-7.95-.6l-.16-1.47h-2.95v12.97h3.21v-7.46c0-2.1 1.24-3.1 2.76-3.1s2.53.97 2.53 2.81v7.74h3.13V28.3c0-2.12 1.21-3.12 2.74-3.12s2.55.97 2.55 2.81v7.74h3.11v-8.48Z"/></svg>