<svg xmlns="http://www.w3.org/2000/svg" viewBox="0 0 159.4 76.75"><path d="M140.81 7.44c-1.56-2.26-3.18-4.66-3.74-7.44 3.05.86 5.69 2.78 7.46 5.42 1.49 2.23 2.93 4.98 2.22 7.93a19.253 19.253 0 0 1-5.94-5.91Zm-122.18 0c1.56-2.26 3.18-4.66 3.74-7.44-3.05.86-5.7 2.78-7.46 5.41-1.5 2.23-2.93 4.98-2.23 7.93 2.39-1.51 4.42-3.53 5.95-5.91Zm-8.31 12.37c2.31.53 4.64-.7 6.48-1.71 2.18-1.19 3.99-2.93 5.27-5.06-2.24-1.13-4.78-.21-6.7.66a9.798 9.798 0 0 0-4.83 5.3c.54-2.33.54-4.75.01-7.09-.46-1.93-1.13-4.65-3.33-5.57a10.67 10.67 0 0 0-1.31 8.68c.67 1.89 1.89 4.4 4.4 4.78Zm34.96-2.82h6.01v4.26h4.01V9.52h-4v4.27h-6.01V9.52h-4v11.73h4v-4.26Zm17.42 4.26h4.02v-3.87l6.27-7.86h-4.42l-3.81 4.69-3.71-4.69h-4.56l6.2 7.88v3.85Zm15.56 0h-4.02V9.52h9.1a5.38 5.38 0 0 1 3.6 1c.9.82 1.35 2.02 1.24 3.23.07 1.03-.26 2.05-.91 2.85a4.975 4.975 0 0 1-3.87 1.36c-.54.02-5.14 0-5.14 0v3.29Zm-.04-6.03h4.17c.84 0 1.34-.19 1.57-.56.13-.26.2-.56.18-.85.02-.31-.05-.63-.21-.9-.38-.43-.94-.64-1.51-.55h-4.2v2.87Zm23.92 3.11h-8.41v-1.52h8.07v-2.85h-8.07v-1.51h8.31V9.52H89.79v11.73h12.36v-2.91Zm5.89 2.91h-3.99V9.52h9.34c1.37-.14 2.73.29 3.77 1.2.57.65.86 1.51.79 2.38.03.78-.18 1.55-.6 2.21-.44.62-1.11 1.04-1.85 1.16l3.54 4.78h-4.45l-2.91-4.14h-3.63v4.14Zm.02-6.76h4.69c.64 0 1.03-.12 1.18-.42.1-.19.14-.4.13-.61.01-.21-.03-.43-.13-.61-.21-.39-.63-.49-1.26-.49h-4.62v2.14Zm-8.04 21.47c0-2.68-1.7-4.09-5.68-4.52-.65-.08-2.54-.27-3.74-.37-3.07-.33-3.99-.51-3.99-1.29 0-.7.72-1.04 3.48-1.04 1.96 0 3.05.37 3.48.94.17.2.28.44.31.7h5.64c-.09-.6-.28-1.18-.57-1.72-1.02-1.96-3.46-3.52-8.73-3.52-5.93 0-9.18 2.09-9.18 4.83s1.84 4.19 6.81 4.64c.56.05 1.77.16 2.76.26h.08l.53.06c2.6.27 3.31.45 3.31 1.27 0 .76-.68 1.17-3.56 1.17-2.23 0-3.54-.33-4.01-.9-.19-.24-.31-.52-.37-.82h-5.64c.06.52.19 1.03.37 1.53.96 2.15 3.46 3.8 9.28 3.8 6.24 0 9.42-1.76 9.42-5.01Zm-44.72 4.78H41.65V25.37h13.27c2.11 0 3.46.51 4.21 1.27.65.68 1 1.6.96 2.54.05.87-.22 1.73-.74 2.43-.48.55-1.14.91-1.86 1 1.06.11 2.03.63 2.72 1.45.51.67.76 1.49.72 2.33.04 1-.28 1.98-.88 2.78-.9 1.1-2.58 1.57-4.76 1.57Zm-8.51-9.38h6.11c.51.06 1.02-.07 1.45-.35.21-.25.32-.57.31-.9.02-.34-.12-.67-.37-.9-.45-.29-.99-.42-1.53-.35h-5.97v2.5Zm8.73 4.62c.02-.34-.1-.67-.33-.92-.5-.31-1.08-.44-1.66-.37h-6.73v2.56h6.68c.62.08 1.26-.06 1.78-.41.2-.24.3-.55.27-.86Zm23.85.94H68.34v-2h10.57v-3.74H68.34v-1.98h10.88v-3.84H63.17v15.36h16.19v-3.82Zm21.36-7.69h6.48v11.51h5.36V29.22h6.5v-3.86h-18.34v3.86Zm17.87 24.85v-4.3h-3.13v.96h2.12v1.56c-.23.76-.96 1.26-1.76 1.2-1.41 0-1.95-.79-1.95-3.3s.43-3.3 1.93-3.3c1.24 0 1.67.89 1.7 1.86h1.05c-.03-1.48-.67-2.86-2.78-2.86-2.43 0-3.02 1.9-3.02 4.27 0 3.06.92 4.26 2.91 4.26.79.08 1.55-.27 2-.92l.06.83h.86v-.25Zm-74.51-8.08 2.44 8.33h-1.11l-.61-2.09h-2.94l-.64 2.09h-1.1l2.61-8.33h1.36Zm.45 5.3s-.98-3.39-.99-3.44l-.05-.25-.12-.55s-.17.75-.18.8c-.02.07-1.06 3.44-1.06 3.44h2.4Zm8.41 1.56c0-.26-1.4-6.86-1.4-6.86h-1.25s-1.4 6.59-1.4 6.86c0-.26-1.52-6.86-1.52-6.86h-1.14l1.97 8.33h1.25s1.43-6.48 1.44-6.75c0 .27 1.4 6.75 1.4 6.75h1.25l1.97-8.33H54.5s-1.56 6.6-1.55 6.86Zm8.61 1.47h-1.12l-.61-2.09h-2.94l-.63 2.09h-1.1l2.61-8.33h1.36l2.44 8.33Zm-1.99-3.03s-.98-3.39-.99-3.44l-.08-.38-.09-.42s-.17.75-.18.8c-.02.07-1.06 3.44-1.06 3.44h2.4Zm6.88-.81 1.6 3.84h-1.16l-1.48-3.63h-2.02v3.63h-1.05v-8.33h3.27c1.28 0 1.98.6 1.98 2.35 0 1.48-.56 1.98-1.14 2.14Zm.03-2.11c0-1.07-.32-1.4-1.08-1.4h-2v2.78h2.05c.83 0 1.03-.43 1.03-1.38Zm7.56-1.49c.42.61.55 1.37.55 3.15 0 1.97-.15 2.77-.57 3.36a2.46 2.46 0 0 1-2.16.94h-2.86V46h2.79c.85-.09 1.69.24 2.25.88Zm-.95.67c-.38-.41-.92-.62-1.48-.56h-1.55v6.34h1.58c.54.05 1.08-.14 1.45-.54.29-.4.38-1.21.38-2.78.1-.84-.03-1.7-.38-2.47Zm11.03 5.3c0-.26-1.4-6.86-1.4-6.86h-1.25s-1.4 6.59-1.4 6.86c0-.26-1.52-6.86-1.52-6.86H77.4l1.97 8.33h1.25s1.43-6.48 1.44-6.75c0 .27 1.4 6.75 1.4 6.75h1.25l1.97-8.33h-1.01s-1.56 6.6-1.55 6.86Zm3.33 1.47h1.09v-8.33h-1.09v8.33Zm3.88-8.33h-1.27v8.33h1.02v-6.46l3.11 6.46h1.21v-8.33h-1.03v6.36l-3.03-6.36Zm9.85 6.36-3.03-6.36h-1.27v8.33h1.02v-6.46l3.1 6.46h1.21v-8.33h-1.03v6.36Zm2.51-6.36v8.33h1.09v-8.33h-1.09Zm3.63 1.87 3.1 6.46h1.21v-8.33h-1.03v6.36l-3.03-6.36h-1.27v8.33h1.02v-6.46ZM53.67 70.73l-1.21-3.71-1.21 3.71h-3.9l3.15 2.29-1.21 3.71 3.16-2.29 3.15 2.29-1.2-3.71 3.15-2.29h-3.9Zm13.94 0-1.23-3.71-1.23 3.71h-3.98l3.22 2.29-1.23 3.71 3.22-2.29 3.22 2.29-1.23-3.71 3.22-2.29h-3.98Zm13.8 0-1.23-3.71-1.23 3.71h-3.98l3.22 2.29-1.23 3.71 3.22-2.29 3.22 2.29-1.23-3.71 3.22-2.29h-3.98Zm13.8 0-1.23-3.71-1.23 3.71h-3.98l3.22 2.29-1.23 3.71 3.22-2.29 3.22 2.29-1.23-3.71 3.22-2.29h-3.98Zm13.89 0-1.2-3.71-1.21 3.71h-3.9l3.16 2.29-1.2 3.71 3.15-2.29 3.16 2.29-1.21-3.71 3.16-2.29h-3.9ZM8.89 29.15c2.33.12 4.34-1.47 5.92-2.8 1.83-1.51 3.18-3.51 3.89-5.77-2.38-.69-4.66.59-6.36 1.8a8.903 8.903 0 0 0-3.43 5.95c-.03-2.37-.62-4.7-1.7-6.82-.95-1.81-2.27-4.26-4.63-4.74-.96 2.84-.64 5.95.86 8.54 1.13 1.73 2.89 3.9 5.45 3.84Zm.76 9.32c2.29-.27 4.04-2.21 5.17-3.78a11.64 11.64 0 0 0 2.45-6.28c-2.44-.26-4.39 1.36-5.79 2.86a8.326 8.326 0 0 0-1.97 6.38 15.91 15.91 0 0 0-3.25-6.31c-1.37-1.59-3.21-3.7-5.65-3.77-.17 2.98.86 5.9 2.85 8.12 1.51 1.71 3.83 3.17 6.2 2.77ZM5.26 46.3c2.19 1.42 4.84 2.83 7.63 1.77 2.29-.81 3.74-3.11 4.64-5.22 1.07-2.27 1.46-4.79 1.14-7.27a7.387 7.387 0 0 0-5.7 4.22 9.38 9.38 0 0 0-.49 7.43 23.95 23.95 0 0 0-5.27-6.33c-1.85-1.68-4.51-3.45-7.2-3.12.53 3.43 2.43 6.51 5.26 8.53Zm13.26 10.73c2.15-1.29 3.02-3.99 3.37-6.31.49-2.56.26-5.2-.67-7.64-2.45.8-4.28 2.87-4.78 5.41-.59 2.61-.1 5.35 1.37 7.59a24.184 24.184 0 0 0-6.97-5.33c-2.38-1.24-5.3-2.74-8.16-1.83a14.64 14.64 0 0 0 7.59 7.79c2.53 1 5.6 1.99 8.24.33Zm8.64 8.21c1.88-1.86 1.88-4.92 1.57-7.34a16.33 16.33 0 0 0-2.84-7.79 7.096 7.096 0 0 0-3.49 6.62c.2 2.99 1.58 5.78 3.84 7.76-2.76-1.9-5.81-3.33-9.04-4.23l-.16-.05c-2.74-.79-6.12-1.76-8.89-.24 2.45 3.44 6.11 5.82 10.25 6.68 2.8.53 6.42.99 8.77-1.41Zm5.8-8.57c-2.42 2.08-2.19 5.07-1.47 7.66.86 3.08 3.82 5.71 6.89 7.21a39.699 39.699 0 0 0-11.14-2.36l-.37-.02c-2.97-.19-6.83-.45-9.2 1.73 3.7 3.05 8.34 4.71 13.14 4.7 3-.06 7.12-.41 8.8-3.51 1.38-2.63.01-5.71-1.08-7.99-1.27-2.87-3.17-5.4-5.57-7.41Zm111.1-42.97c-1.92-.88-4.46-1.8-6.7-.67 1.28 2.13 3.1 3.88 5.27 5.07 1.84 1.02 4.17 2.25 6.48 1.72 2.51-.39 3.73-2.89 4.4-4.78.83-2.94.36-6.1-1.3-8.68-2.2.92-2.87 3.64-3.33 5.57-.53 2.33-.53 4.76 0 7.09a9.747 9.747 0 0 0-4.83-5.31Zm6.44 14.63c-.3-2.36-1.53-4.5-3.42-5.95-1.7-1.21-3.98-2.5-6.36-1.8.71 2.26 2.06 4.26 3.89 5.77 1.58 1.33 3.6 2.92 5.93 2.8 2.55.06 4.31-2.1 5.44-3.83 1.5-2.59 1.82-5.7.87-8.54-2.36.49-3.68 2.93-4.64 4.74a15.395 15.395 0 0 0-1.71 6.81Zm2.66 3.02a15.803 15.803 0 0 0-3.26 6.31 8.35 8.35 0 0 0-1.97-6.39c-1.4-1.5-3.35-3.13-5.79-2.87a11.61 11.61 0 0 0 2.45 6.28c1.13 1.57 2.88 3.5 5.16 3.78 2.38.4 4.7-1.05 6.2-2.76 2-2.22 3.03-5.14 2.86-8.12-2.44.06-4.29 2.17-5.66 3.76Zm-6.72 8.43a7.355 7.355 0 0 0-5.7-4.22c-.32 2.48.07 5.01 1.14 7.27.89 2.12 2.35 4.42 4.64 5.23 2.78 1.06 5.43-.34 7.62-1.76 2.83-2.02 4.73-5.09 5.26-8.53-2.68-.33-5.35 1.43-7.2 3.12-2.11 1.79-3.9 3.93-5.27 6.32a9.42 9.42 0 0 0-.48-7.43Zm2.12 10.96a24.184 24.184 0 0 0-6.97 5.33 9.928 9.928 0 0 0 1.37-7.58 7.108 7.108 0 0 0-4.77-5.41c-.93 2.43-1.17 5.08-.68 7.63.35 2.32 1.21 5.02 3.35 6.31 2.64 1.68 5.73.68 8.26-.32 3.44-1.52 6.16-4.31 7.6-7.79-2.86-.9-5.78.59-8.16 1.83Zm-6.21 9.46-.16.04c-3.23.9-6.28 2.33-9.04 4.22 2.26-1.97 3.64-4.76 3.84-7.75a7.096 7.096 0 0 0-3.48-6.62c-1.6 2.31-2.59 4.99-2.85 7.79-.32 2.41-.31 5.48 1.56 7.34 2.34 2.4 5.97 1.94 8.76 1.41 4.14-.86 7.8-3.24 10.25-6.67-2.76-1.53-6.15-.55-8.89.23Zm-9.85 8.94-.38.02c-3.81.24-7.56 1.03-11.14 2.35 3.07-1.49 6.04-4.12 6.9-7.2.72-2.59.96-5.58-1.46-7.66a20.55 20.55 0 0 0-5.58 7.41c-1.09 2.27-2.45 5.33-1.11 7.95l.02.04c1.68 3.1 5.8 3.46 8.8 3.52 4.79.01 9.44-1.65 13.14-4.7-2.37-2.17-6.23-1.93-9.2-1.73Z"/></svg>