<svg xmlns="http://www.w3.org/2000/svg" viewBox="0 0 174.48 57.28"><path d="M19.49 23.83c.05 1.19.08 2.69.08 4.5s-.03 3.33-.08 4.54c-.02.95-.14 1.9-.34 2.84-.07.56-.33 1.07-.72 1.48-.35.29-.79.44-1.25.42-.46.02-.92-.13-1.29-.42-.37-.41-.62-.93-.72-1.48-.18-.94-.28-1.88-.3-2.84-.05-1.21-.08-2.72-.08-4.54s.03-3.32.08-4.5c.02-.96.12-1.92.3-2.87.1-.55.34-1.06.72-1.48.36-.29.82-.44 1.29-.42.45-.03.9.12 1.25.42.39.4.64.92.72 1.48.21.94.32 1.91.34 2.87Zm35.35-6.75-.18 11.2.18 11.2c.15 9.12-7.1 16.65-16.22 16.84l-11.2.24-11.2-.24C7.1 56.12-.15 48.59 0 39.48l.18-11.2L0 17.07C-.14 7.96 7.1.43 16.22.24L27.42 0l11.2.24c9.12.19 16.37 7.72 16.22 16.84ZM27.81 42.54l-3.25-3.25c.88-1.32 1.48-2.82 1.74-4.39.39-2.17.56-4.37.53-6.58.03-2.15-.14-4.3-.49-6.43-.23-1.55-.79-3.03-1.62-4.35a6.434 6.434 0 0 0-2.99-2.46 11.36 11.36 0 0 0-4.54-.79c-1.55-.04-3.09.23-4.54.79a6.424 6.424 0 0 0-2.99 2.46c-.84 1.32-1.39 2.8-1.63 4.35-.36 2.12-.52 4.27-.49 6.43-.03 2.17.14 4.33.49 6.47.24 1.54.8 3.02 1.63 4.35a6.308 6.308 0 0 0 2.99 2.38c1.46.52 2.99.76 4.54.72h.68c.32 0 .63-.02.95-.08.3-.03.6-.06.91-.11l3.86 4.16 4.23-3.67Zm18.92-11.57h-6.81c0 1.29-.04 2.36-.11 3.21-.03.68-.13 1.35-.3 2-.1.42-.32.81-.64 1.1-.31.21-.68.32-1.06.3-.46.02-.92-.13-1.28-.42-.37-.41-.62-.93-.72-1.48-.18-.94-.28-1.88-.3-2.84-.05-1.21-.08-2.72-.08-4.54s.03-3.32.08-4.5c.02-.96.12-1.92.3-2.87.1-.55.35-1.06.72-1.47.36-.29.82-.44 1.28-.42.61-.04 1.19.29 1.48.83.38 1 .53 2.07.45 3.14v1.51h6.81v-1.7c.02-1.19-.15-2.38-.49-3.52a6.167 6.167 0 0 0-1.51-2.68 6.624 6.624 0 0 0-2.68-1.74c-1.3-.43-2.67-.64-4.05-.61-1.56-.04-3.11.21-4.58.76-1.22.47-2.26 1.3-2.99 2.38-.84 1.32-1.39 2.8-1.63 4.35-.33 2.16-.48 4.35-.45 6.54-.02 2.16.1 4.32.38 6.46.2 1.53.7 3.01 1.48 4.35.69 1.1 1.73 1.94 2.95 2.38 1.56.53 3.2.77 4.84.72 1.11 0 2.21-.12 3.29-.38 1.05-.21 2.04-.68 2.87-1.36.89-.78 1.57-1.77 2-2.87.55-1.49.81-3.07.76-4.65v-2Zm117.49 2.96h9.9v8.19h-28.87v.02H133.7l-4.14-5.35h-6.22v5.35H113.3l.02.02H99.79l-5.75-5.99-5.75 5.99H74.75l12.54-11.93L74.75 18.3h13.54l5.75 5.97 5.75-5.97h13.06v-.02h22.13c5.11-.01 9.26 4.12 9.27 9.23v.03c.01 1.78-.5 3.52-1.48 5.01a9.233 9.233 0 0 1-2.82 2.78l4.72 6.06v-3.93c0-3.08 2.3-5.04 4.95-6.34 2.84-1.25 5.81-2.18 8.85-2.8h.03c1.44-.33 2.86-.72 4.25-1.19.38-.13.74-.31 1.08-.53l.06-.05c-.13-.1-.27-.18-.43-.23-.98-.31-2-.44-3.02-.39-1.29-.04-2.59.12-3.83.47-.33.1-.63.27-.88.51a.79.79 0 0 0-.2.59l.02.98H145v-.96c-.06-1.73.34-3.45 1.16-4.97a7.773 7.773 0 0 1 3.29-3.06c2.71-1.39 6.45-1.74 10.62-1.74s7.81.49 10.32 1.76c1.22.58 2.26 1.48 3.01 2.61a7.227 7.227 0 0 1 1.06 3.92c0 2.76-1.67 4.52-3.71 5.67a26.724 26.724 0 0 1-6.55 2.25Zm-53.3 7.26L99.39 30.22l11.53-10.97h-10.71l-6.16 6.4-6.16-6.4H77.17L88.7 30.22 77.17 41.19h10.72l6.16-6.41 6.16 6.41h10.71Zm1.94-22.45-12.07 11.48 12.07 11.48V18.75Zm30.44 22.43-4.79-6.15a8.19 8.19 0 0 0 3.46-3 8.034 8.034 0 0 0 1.33-4.49c0-4.58-3.71-8.29-8.28-8.29h-21.18v21.93h8.57v-5.35h7.65l4.14 5.35h9.12Zm15.89-6.28c.44-.44.97-.77 1.57-.96 1.04-.38 2.1-.68 3.18-.92 4.22-1.03 9.6-2.43 9.6-7 0-5.35-4.97-7.33-13.42-7.33-7.95 0-13.58 1.29-14.07 7.85-.02.31-.04.63-.04.96h8.6v-.11c.05-1.95 2.74-2.41 5.87-2.44 3.06 0 4.46.68 4.46 1.62 0 1.15-2.71 1.82-6.12 2.65l-.09.02c-5.66 1.34-13.06 3.2-13.06 8.21v3.7h27.52v-6.26h-13.98Zm4.79-8.27v-.02.02Zm-29.25.92c0 1.04-.85 1.87-1.88 1.86H122.4v-3.74H132.87c1.03 0 1.86.85 1.86 1.88Zm-.96 0c0-.5-.4-.91-.9-.92h-9.5v1.82h9.48c.5 0 .91-.4.92-.9ZM87.21 51.75l-4.1-5.27h-5.14v10.53h4.1v-5.62l4.11 5.62h2.05l4.11-5.62v5.62h4.1V46.48h-5.12l-4.11 5.27Zm25.07-.38v.77c.02 3.98-3.23 5.13-7.18 5.14-3.96 0-7.2-1.16-7.19-5.14v-.77c-.01-3.99 3.23-5.13 7.19-5.14 3.96 0 7.18 1.16 7.18 5.14Zm-4.1.25c.02-1.72-1.4-2.03-3.08-2.05-1.68.02-3.11.34-3.09 2.05v.26c-.02 1.72 1.4 2.04 3.09 2.06 1.68-.02 3.1-.34 3.08-2.06v-.26Zm19.71.15v.17a5.06 5.06 0 0 1-5.02 5.1h-9.37V46.51H123.06a5.05 5.05 0 0 1 4.83 5.26Zm-4.11 0c0-.05.01-.11.01-.16a1.72 1.72 0 0 0-1.68-1.76h-4.49v3.85h4.49c.05 0 .1 0 .16-.01.95-.11 1.62-.97 1.51-1.92Zm15.54.12c.02 1.73-1.4 2.03-3.08 2.05-1.68-.02-3.1-.32-3.09-2.05v-5.4h-4.1v5.66c-.02 3.98 3.24 5.12 7.19 5.13 3.95 0 7.2-1.15 7.19-5.13v-5.66h-4.11v5.4Zm10.06-5.4h-4.1v10.53h12.32v-3.34h-8.22v-7.19ZM159 57.04h12.32v-2.7h-8.21v-1.35h8.21v-2.44h-8.21V49.2h8.21v-2.7H159v10.54ZM80.31 13.37h-4.98V.34h12.31a4.87 4.87 0 0 1 4.82 4.92c.02 2.7-2.14 4.9-4.83 4.92H80.3v3.18Zm0-7h6.08c.29 0 .56-.11.76-.32.21-.21.33-.49.32-.79 0-.3-.11-.58-.32-.78-.19-.21-.47-.33-.76-.33h-6.08v2.22Zm13.34.94v-.95C93.64 1.43 97.57 0 102.38 0c4.81 0 8.71 1.43 8.71 6.36v.95c.02 4.92-3.91 6.35-8.71 6.36-4.81-.01-8.74-1.43-8.72-6.36Zm4.98-.32c-.03 2.13 1.7 2.52 3.74 2.55 2.03-.03 3.76-.42 3.73-2.55v-.32c.03-2.12-1.7-2.51-3.73-2.54-2.04.03-3.77.42-3.74 2.54v.32Zm23.31 6.38 2.8-6.51 2.8 6.51h5.92L139.07.34h-5.61l-2.96 8.25-2.95-8.25h-5.61l-2.96 8.25-2.95-8.25h-5.61l5.61 13.03h5.92Zm32.46-3.34h-9.97V8.36h9.97V5.34h-9.97V3.67h9.97V.34h-14.95v13.03h14.95v-3.34Zm7.63 3.33h-4.98V.33h12.31a4.87 4.87 0 0 1 4.82 4.92c.01 1.9-1.07 3.63-2.79 4.45l2.79 3.65h-5.3l-2.4-3.18h-4.45v3.18Zm0-7h6.07c.29 0 .57-.11.77-.32.21-.21.33-.49.32-.78 0-.62-.49-1.11-1.09-1.12h-6.07v2.22Z"/></svg>